<?xml version="1.0" encoding="utf-8"?>
<!-- Generator: Adobe Illustrator 22.1.0, SVG Export Plug-In . SVG Version: 6.00 Build 0)  -->
<svg version="1.1" xmlns="http://www.w3.org/2000/svg" xmlns:xlink="http://www.w3.org/1999/xlink" x="0px" y="0px"
	 viewBox="0 0 48.4 47.3" style="enable-background:new 0 0 48.4 47.3;" xml:space="preserve">
<style type="text/css">
	.st0{display:none;}
	.st1{display:inline;fill:#4B4B4B;}
	.st2{fill:#4B4B4B;}
</style>
<g id="圖層_2_1_" class="st0">
	<title>IDM-icon-7</title>
	<path class="st1" d="M0.1,0v8.4h48.4V0H0.1z M10.6,5.8H5.8V2.6h4.8V5.8z"/>
	<path class="st1" d="M0.1,9.7v8.5h48.4V9.7H0.1z M10.6,15.5H5.8v-3.2h4.8L10.6,15.5z"/>
	<path class="st1" d="M0.1,19.4v8.5h48.4v-8.5H0.1z M10.6,25.2H5.8v-3.2h4.8L10.6,25.2z"/>
	<path class="st1" d="M0.1,29.1v8.4h48.4v-8.4H0.1z M10.6,34.9H5.8v-3.1h4.8V34.9z"/>
	<path class="st1" d="M0.1,38.8v8.5h48.4v-8.5H0.1z M10.6,44.6H5.8v-3.2h4.8L10.6,44.6z"/>
</g>
<g id="圖層_3">
	<path class="st2" d="M30.9,0.6H17.7c-1.4,0-2.6,1.2-2.6,2.6V44c0,1.4,1.2,2.6,2.6,2.6h13.2c1.4,0,2.6-1.2,2.6-2.6V3.2
		C33.5,1.7,32.4,0.6,30.9,0.6z M24.3,35.1c-1.7,0-3-1.3-3-3c0-1.7,1.3-3,3-3c1.7,0,3,1.3,3,3C27.3,33.8,26,35.1,24.3,35.1z
		 M29.1,16.5h-9.2v-1.8h9.2V16.5z M29.1,10.9h-9.2V9.1h9.2V10.9z"/>
</g>
</svg>
