<?xml version="1.0" encoding="utf-8"?>
<!-- Generator: Adobe Illustrator 22.1.0, SVG Export Plug-In . SVG Version: 6.00 Build 0)  -->
<svg version="1.1" xmlns="http://www.w3.org/2000/svg" xmlns:xlink="http://www.w3.org/1999/xlink" x="0px" y="0px"
	 viewBox="0 0 50 50" style="enable-background:new 0 0 50 50;" xml:space="preserve">
<style type="text/css">
	.st0{display:none;}
	.st1{display:inline;}
	.st2{fill:#4C4B4C;}
	.st3{display:inline;fill:#4C4B4C;}
</style>
<g id="圖層_1" class="st0">
</g>
<g id="圖層_6" class="st0">
	<g class="st1">
		<path class="st2" d="M45,20.7l-7.5-6.2c-1.4-1.1-3.2-1.8-5-1.8H25h-7.5c-1.8,0-3.6,0.6-5,1.8L5,20.7c-1.6,1.2-2.7,3.1-2.7,5.2v5.5
			c0,3.6,2.9,6.4,6.4,6.4H25h16.2c3.6,0,6.4-2.9,6.4-6.4v-5.5C47.7,23.8,46.6,21.9,45,20.7z M6,25.9c0-0.8,0.3-1.4,0.8-2
			c0.5-0.5,1.2-0.8,2-0.8H25h16.2c0.8,0,1.4,0.3,2,0.8c0.5,0.5,0.8,1.2,0.8,2v5.5c0,0.8-0.3,1.4-0.8,2c-0.5,0.5-1.2,0.8-2,0.8H25
			H8.8c-0.8,0-1.4-0.3-2-0.8c-0.5-0.5-0.8-1.2-0.8-2V25.9z"/>
		<path class="st2" d="M31.2,30.9c1.1,0,2.1-0.9,2.1-2.1c0-1.1-0.9-2.1-2.1-2.1c-1.1,0-2.1,0.9-2.1,2.1C29.1,30,30.1,30.9,31.2,30.9
			z"/>
		<path class="st2" d="M38.2,30.9c1.1,0,2.1-0.9,2.1-2.1c0-1.1-0.9-2.1-2.1-2.1c-1.1,0-2.1,0.9-2.1,2.1S37,30.9,38.2,30.9z"/>
	</g>
</g>
<g id="圖層_5" class="st0">
	<polygon class="st3" points="31.2,3 13.8,26.9 24,29.8 21,47.6 36.2,25 26,22.1 	"/>
</g>
<g id="圖層_2" class="st0">
	<g class="st1">
		<path class="st2" d="M5.3,47.2h10.2V3.4H5.3V47.2z M12.6,37.7v4.4H8.2v-4.4H12.6z"/>
		<path class="st2" d="M30.1,47.2V3.4H19.9v43.8H30.1z M22.8,42.1v-4.4h4.4v4.4H22.8z"/>
		<path class="st2" d="M44.7,47.2V3.4H34.5v43.8H44.7z M37.4,42.1v-4.4h4.4v4.4H37.4z"/>
	</g>
</g>
<g id="圖層_4">
	<g>
		<path class="st2" d="M16.9,28c0.1-0.1,0.1-0.4,0-0.5l-0.1-0.1c-0.1-0.1-0.4-0.1-0.5,0l-0.7,0.7l0.6,0.6L16.9,28z"/>
		<path class="st2" d="M17.5,30l0.7-0.7c0.1-0.1,0.1-0.4,0-0.5l-0.1-0.1c-0.1-0.1-0.4-0.1-0.5,0l-0.7,0.7L17.5,30z"/>
		<path class="st2" d="M19.4,29.9L19.4,29.9c-0.2-0.2-0.5-0.2-0.6-0.1l-0.7,0.7l0.6,0.6l0.7-0.7C19.6,30.3,19.6,30.1,19.4,29.9z"/>
		<path class="st2" d="M20.7,31.7c0.1-0.1,0.1-0.4,0-0.5l-0.1-0.1c-0.1-0.1-0.4-0.1-0.5,0l-0.7,0.7l0.6,0.6L20.7,31.7z"/>
		<path class="st2" d="M10.8,32.9L10,33.6c-0.1,0.1-0.1,0.4,0,0.5l0.1,0.1c0.1,0.1,0.4,0.1,0.5,0l0.7-0.7L10.8,32.9z"/>
		<path class="st2" d="M12,34.1l-0.7,0.7c-0.1,0.1-0.1,0.4,0,0.5l0.1,0.1c0.1,0.1,0.4,0.1,0.5,0l0.7-0.7L12,34.1z"/>
		<path class="st2" d="M13.3,35.4l-0.7,0.7c-0.1,0.1-0.1,0.4,0,0.5l0.1,0.1c0.1,0.1,0.4,0.1,0.5,0l0.7-0.7L13.3,35.4z"/>
		<path class="st2" d="M14.5,36.7l-0.7,0.7c-0.1,0.1-0.1,0.4,0,0.5l0.1,0.1c0.1,0.1,0.4,0.1,0.5,0l0.7-0.7L14.5,36.7z"/>
		<path class="st2" d="M21.9,32.4c-0.1-0.1-0.4-0.1-0.5,0l-0.7,0.7l0.6,0.6l0.7-0.7C22.1,32.8,22.1,32.6,21.9,32.4L21.9,32.4z"/>
		
			<rect x="13.1" y="28" transform="matrix(0.7071 -0.7071 0.7071 0.7071 -18.8672 21.0566)" class="st2" width="5.7" height="10.6"/>
		<path class="st2" d="M15,38.6c-0.1,0.1-0.1,0.4,0,0.5l0.1,0.1c0.1,0.1,0.4,0.1,0.5,0l0.7-0.7l-0.6-0.6L15,38.6z"/>
		<path class="st2" d="M25.4,19.5c0.1-0.1,0.1-0.4,0-0.5l-0.1-0.1c-0.1-0.1-0.4-0.1-0.5,0l-0.7,0.7l0.6,0.6L25.4,19.5z"/>
		<path class="st2" d="M26,21.4l0.7-0.7c0.1-0.1,0.1-0.4,0-0.5l-0.1-0.1c-0.1-0.1-0.4-0.1-0.5,0l-0.7,0.7L26,21.4z"/>
		<path class="st2" d="M27.9,21.4L27.9,21.4c-0.2-0.2-0.5-0.2-0.6-0.1l-0.7,0.7l0.6,0.6l0.7-0.7C28.1,21.8,28.1,21.6,27.9,21.4z"/>
		<path class="st2" d="M29.2,23.2c0.1-0.1,0.1-0.4,0-0.5l-0.1-0.1c-0.1-0.1-0.4-0.1-0.5,0l-0.7,0.7l0.6,0.6L29.2,23.2z"/>
		<path class="st2" d="M18.6,25.7c0.1,0.1,0.4,0.1,0.5,0l0.7-0.7l-0.6-0.6l-0.7,0.7C18.4,25.3,18.4,25.5,18.6,25.7L18.6,25.7z"/>
		<path class="st2" d="M19.8,26.4c-0.1,0.1-0.1,0.4,0,0.5l0.1,0.1c0.1,0.1,0.4,0.1,0.5,0l0.7-0.7l-0.6-0.6L19.8,26.4z"/>
		<path class="st2" d="M21,28.1L21,28.1c0.2,0.2,0.5,0.2,0.6,0.1l0.7-0.7l-0.6-0.6L21,27.6C20.9,27.8,20.9,28,21,28.1z"/>
		<path class="st2" d="M23,28.1l-0.7,0.7c-0.1,0.1-0.1,0.4,0,0.5l0.1,0.1c0.1,0.1,0.4,0.1,0.5,0l0.7-0.7L23,28.1z"/>
		<path class="st2" d="M30.4,23.8c-0.1-0.1-0.4-0.1-0.5,0l-0.7,0.7l0.6,0.6l0.7-0.7C30.6,24.3,30.6,24.1,30.4,23.8L30.4,23.8z"/>
		<polygon class="st2" points="18.7,23 26.2,30.6 30.3,26.5 22.7,19 		"/>
		<path class="st2" d="M23.6,30.1c-0.1,0.1-0.1,0.4,0,0.5l0.1,0.1c0.1,0.1,0.4,0.1,0.5,0l0.7-0.7l-0.6-0.6L23.6,30.1z"/>
		<path class="st2" d="M33.9,10.9c0.1-0.1,0.1-0.4,0-0.5l-0.1-0.1c-0.1-0.1-0.4-0.1-0.5,0l-0.7,0.7l0.6,0.6L33.9,10.9z"/>
		<path class="st2" d="M34.5,12.9l0.7-0.7c0.1-0.1,0.1-0.4,0-0.5l-0.1-0.1c-0.1-0.1-0.4-0.1-0.5,0l-0.7,0.7L34.5,12.9z"/>
		<path class="st2" d="M35.7,14.2l0.7-0.7c0.1-0.1,0.1-0.4,0-0.5l-0.1-0.1c-0.1-0.1-0.4-0.1-0.5,0l-0.7,0.7L35.7,14.2z"/>
		<path class="st2" d="M37,15.4l0.7-0.7c0.1-0.1,0.1-0.4,0-0.5l-0.1-0.1c-0.1-0.1-0.4-0.1-0.5,0l-0.7,0.7L37,15.4z"/>
		<path class="st2" d="M27.1,17.2c0.1,0.1,0.4,0.1,0.5,0l0.7-0.7l-0.6-0.6L27,16.6C26.9,16.7,26.9,17,27.1,17.2L27.1,17.2z"/>
		<path class="st2" d="M29,17.1l-0.7,0.7c-0.1,0.1-0.1,0.4,0,0.5l0.1,0.1c0.1,0.1,0.4,0.1,0.5,0l0.7-0.7L29,17.1z"/>
		<path class="st2" d="M30.3,18.4l-0.7,0.7c-0.1,0.1-0.1,0.4,0,0.5l0.1,0.1c0.1,0.1,0.4,0.1,0.5,0l0.7-0.7L30.3,18.4z"/>
		<path class="st2" d="M31.5,19.6l-0.7,0.7c-0.1,0.1-0.1,0.4,0,0.5l0.1,0.1c0.1,0.1,0.4,0.1,0.5,0l0.7-0.7L31.5,19.6z"/>
		<path class="st2" d="M38.9,15.3c-0.1-0.1-0.4-0.1-0.5,0l-0.7,0.7l0.6,0.6L39,16C39.1,15.8,39.1,15.6,38.9,15.3L38.9,15.3z"/>
		<rect x="30.2" y="11" transform="matrix(0.7071 -0.7071 0.7071 0.7071 -1.847 28.1067)" class="st2" width="5.7" height="10.6"/>
		<path class="st2" d="M32.1,21.6c-0.1,0.1-0.1,0.4,0,0.5l0.1,0.1c0.1,0.1,0.4,0.1,0.5,0l0.7-0.7l-0.6-0.6L32.1,21.6z"/>
		<path class="st2" d="M44.3,12.9c-0.7,0.7-1.9,0.7-2.6,0c-0.7-0.7-0.7-1.9,0-2.6l-2.4-2.4c-0.7,0.7-1.9,0.7-2.6,0
			c-0.7-0.7-0.7-1.9,0-2.6l-2.8-2.8L2.2,34.1L5,36.9c0.7-0.7,1.9-0.7,2.6,0c0.7,0.7,0.7,1.9,0,2.6l2.4,2.4c0.7-0.7,1.9-0.7,2.6,0
			c0.7,0.7,0.7,1.9,0,2.6l3.5,3.5l31.6-31.6L44.3,12.9z M44,18.9l-1.2,1.2l-1.3-1.3l-0.8,0.8l1.3,1.3l-1.2,1.2l-1.3-1.3l-0.8,0.8
			l1.3,1.3l-1.2,1.2l-1.3-1.3l-0.8,0.8L38,25l-1.2,1.2l-1.3-1.3l-0.8,0.8L36,27l-1.2,1.2l-1.3-1.3l-0.8,0.8l1.3,1.3l-1.2,1.2
			l-1.3-1.3l-0.8,0.8l1.3,1.3l-1.2,1.2l-1.3-1.3l-0.8,0.8l1.3,1.3l-1.2,1.2l-1.3-1.3l-0.8,0.8l1.3,1.3l-1.2,1.2l-1.3-1.3l-0.8,0.8
			l1.3,1.3l-1.2,1.2l-1.3-1.3l-0.8,0.8l1.3,1.3l-1.2,1.2L21.3,39l-0.8,0.8l1.3,1.3l-1.2,1.2L19.3,41l-0.8,0.8l1.3,1.3l-1.2,1.2
			L17.3,43l-0.8,0.8l1.3,1.3l-1.6,1.6l-2.3-2.3c0.5-1,0.3-2.3-0.6-3.2c-0.9-0.9-2.1-1-3.2-0.6l-1.3-1.3c0.5-1,0.3-2.3-0.6-3.2
			c-0.9-0.9-2.1-1-3.2-0.6l-1.6-1.6L33.8,3.9l1.6,1.6c-0.5,1-0.3,2.3,0.6,3.2c0.9,0.9,2.1,1,3.2,0.6l1.3,1.3c-0.5,1-0.3,2.3,0.6,3.2
			c0.9,0.9,2.1,1,3.2,0.6l2.3,2.3l-1.6,1.6l-1.3-1.3l-0.8,0.8L44,18.9z"/>
	</g>
</g>
<g id="圖層_3" class="st0">
	<g class="st1">
		<rect x="15.1" y="3.3" class="st2" width="2.8" height="6.2"/>
		<rect x="20.8" y="3.3" class="st2" width="2.8" height="6.2"/>
		<rect x="26.4" y="3.3" class="st2" width="2.8" height="6.2"/>
		<rect x="32" y="3.3" class="st2" width="2.8" height="6.2"/>
		<rect x="15.1" y="41.1" class="st2" width="2.8" height="6.2"/>
		<rect x="20.8" y="41.1" class="st2" width="2.8" height="6.2"/>
		<rect x="26.4" y="41.1" class="st2" width="2.8" height="6.2"/>
		<rect x="32" y="41.1" class="st2" width="2.8" height="6.2"/>
		<rect x="40.8" y="15.4" class="st2" width="6.2" height="2.8"/>
		<rect x="40.8" y="21.1" class="st2" width="6.2" height="2.8"/>
		<rect x="40.8" y="26.7" class="st2" width="6.2" height="2.8"/>
		<rect x="40.8" y="32.3" class="st2" width="6.2" height="2.8"/>
		<rect x="3" y="15.4" class="st2" width="6.2" height="2.8"/>
		<rect x="3" y="21.1" class="st2" width="6.2" height="2.8"/>
		<rect x="3" y="26.7" class="st2" width="6.2" height="2.8"/>
		<rect x="3" y="32.3" class="st2" width="6.2" height="2.8"/>
		<path class="st2" d="M24.9,25c0.5,0,0.8-0.3,0.8-0.8c0-0.5-0.3-0.8-0.8-0.8h-1c0,0-0.1,0-0.1,0.1v1.5c0,0,0,0.1,0.1,0.1H24.9z"/>
		<path class="st2" d="M10.9,39.4h28.2V11.2H10.9V39.4z M34.6,14.5c0.7,0,1.3,0.6,1.3,1.3c0,0.7-0.6,1.3-1.3,1.3s-1.3-0.6-1.3-1.3
			C33.2,15.1,33.8,14.5,34.6,14.5z M34.6,33.7c0.7,0,1.3,0.6,1.3,1.3c0,0.7-0.6,1.3-1.3,1.3s-1.3-0.6-1.3-1.3
			C33.2,34.2,33.8,33.7,34.6,33.7z M28,22.4C28,22.3,28,22.3,28,22.4l1.2-0.1c0.1,0,0.1,0,0.1,0.1V26c0,0.7,0.4,1.1,1,1.1
			c0.6,0,1-0.4,1-1.1v-3.6c0-0.1,0-0.1,0.1-0.1h1.1c0.1,0,0.1,0,0.1,0.1V26c0,1.4-0.9,2.2-2.2,2.2c-1.3,0-2.2-0.8-2.2-2.2V22.4
			L28,22.4z M22.7,22.4C22.7,22.3,22.7,22.3,22.7,22.4l2.3-0.1c1.3,0,2,0.8,2,1.9c0,1.1-0.8,1.9-2,1.9h-1c0,0-0.1,0-0.1,0.1v1.9
			c0,0.1,0,0.1-0.1,0.1h-1.1c-0.1,0-0.1,0-0.1-0.1V22.4z M17.4,23.7c0.3-1,1.1-1.4,2.1-1.4c1,0,1.7,0.5,2,1.3c0,0,0,0.1,0,0.1
			L20.5,24c-0.1,0-0.1,0-0.1,0c-0.2-0.4-0.4-0.7-0.9-0.7c-0.5,0-0.7,0.2-0.9,0.6c-0.1,0.2-0.1,0.4-0.1,1.3c0,0.8,0,1,0.1,1.2
			c0.1,0.4,0.4,0.6,0.9,0.6c0.5,0,0.8-0.3,0.9-0.7c0-0.1,0.1-0.1,0.1,0l0.9,0.4c0.1,0,0.1,0.1,0,0.1c-0.3,0.8-1,1.3-2,1.3
			c-1,0-1.8-0.5-2.1-1.4c-0.1-0.4-0.2-0.7-0.2-1.6C17.2,24.3,17.3,24,17.4,23.7z M15.4,14.5c0.7,0,1.3,0.6,1.3,1.3
			c0,0.7-0.6,1.3-1.3,1.3c-0.7,0-1.3-0.6-1.3-1.3C14.1,15.1,14.7,14.5,15.4,14.5z M15.4,33.7c0.7,0,1.3,0.6,1.3,1.3
			c0,0.7-0.6,1.3-1.3,1.3c-0.7,0-1.3-0.6-1.3-1.3C14.1,34.2,14.7,33.7,15.4,33.7z"/>
	</g>
</g>
</svg>
