
<svg xmlns="http://www.w3.org/2000/svg" version="1.1" xmlns:xlink="http://www.w3.org/1999/xlink" preserveAspectRatio="none" x="0px" y="0px" width="500px" height="500px" viewBox="0 0 500 500">
<defs>
<g id="Layer4_0_FILL">
<path fill="#F58522" stroke="none" d="
M 246.35 88.95
Q 245.8 87.55 244.4 86.9
L 235.95 82.9
Q 234.6 82.25 233.1 82.7 231.65 83.2 230.9 84.5
L 223.2 96.1
Q 222.85 96.7 222.3 97 221.75 97.35 221.05 97.3
L 209.3 96.75
Q 208.65 96.7 208.1 96.35 207.55 96 207.3 95.4
L 200.65 82.95
Q 200.05 81.55 198.65 80.95 197.25 80.35 195.8 80.9
L 187 84.05
Q 185.6 84.55 184.85 85.95 184.15 87.3 184.6 88.75
L 187.4 102.55
Q 187.55 103.15 187.35 103.8 187.2 104.45 186.7 104.85
L 178 112.8
Q 177.5 113.25 176.85 113.35 176.2 113.5 175.6 113.25
L 162.25 109.2
Q 160.85 108.7 159.4 109.25 158 109.85 157.35 111.2
L 153.35 119.65
Q 152.75 121.05 153.2 122.5 153.65 123.95 154.95 124.7
L 166.6 132.4
Q 167.15 132.75 167.5 133.3 167.8 133.85 167.75 134.5
L 167.2 146.3
Q 167.2 146.95 166.8 147.5 166.45 148.05 165.85 148.3
L 153.45 154.95
Q 152.05 155.55 151.45 156.95 150.85 158.35 151.35 159.8
L 154.5 168.6
Q 155.05 170 156.4 170.75 157.75 171.45 159.2 171
L 173 168.2
Q 173.65 168.05 174.3 168.25 174.9 168.4 175.35 168.9
L 183.25 177.6
Q 183.7 178.1 183.85 178.75 183.95 179.4 183.7 180
L 179.7 193.35
Q 179.15 194.75 179.75 196.2 180.3 197.6 181.7 198.25
L 190.1 202.2
Q 191.5 202.9 192.95 202.4 194.4 201.95 195.2 200.65
L 202.85 189
Q 203.2 188.45 203.8 188.1 204.35 187.8 205 187.85
L 216.75 188.4
Q 217.45 188.45 218 188.8 218.55 189.15 218.8 189.75
L 225.4 202.15
Q 226.05 203.55 227.45 204.15 228.85 204.75 230.3 204.25
L 239.05 201.1
Q 240.5 200.55 241.2 199.2 241.9 197.85 241.5 196.35
L 238.7 182.6
Q 238.5 181.95 238.7 181.3 238.9 180.7 239.35 180.25
L 248.1 172.3
Q 248.55 171.9 249.2 171.75 249.85 171.6 250.45 171.85
L 263.8 175.9
Q 265.25 176.45 266.65 175.9 268.1 175.3 268.7 173.9
L 272.7 165.5
Q 273.35 164.1 272.9 162.65 272.4 161.2 271.1 160.4
L 259.5 152.7
Q 258.9 152.4 258.6 151.85 258.3 151.25 258.3 150.6
L 258.85 138.8
Q 258.9 138.15 259.25 137.6 259.65 137.05 260.2 136.8
L 272.65 130.2
Q 274.05 129.55 274.65 128.15 275.25 126.75 274.7 125.3
L 271.55 116.55
Q 271.05 115.1 269.7 114.4 268.3 113.7 266.85 114.1
L 253.05 116.9
Q 252.45 117.1 251.8 116.9 251.15 116.7 250.7 116.25
L 242.8 107.5
Q 242.35 107.05 242.2 106.4 242.1 105.75 242.35 105.15
L 246.35 91.8
Q 246.9 90.35 246.35 88.95
M 222.25 122.95
Q 226.15 124.8 229.05 127.95 231.95 131.15 233.4 135.25 234.9 139.3 234.65 143.6 234.5 147.85 232.65 151.8 230.8 155.7 227.65 158.6 224.45 161.45 220.35 162.95 216.3 164.4 212 164.2 207.75 164 203.8 162.15 199.9 160.35 197 157.15 194.15 154 192.65 149.9 191.2 145.8 191.4 141.55 191.6 137.25 193.45 133.35 195.3 129.4 198.45 126.55 201.65 123.7 205.7 122.2 209.8 120.7 214.05 120.95 218.35 121.1 222.25 122.95
M 343.35 192.35
Q 342.7 192.9 341.9 193.05 341.05 193.2 340.3 192.85
L 326.4 187.1
Q 325.6 186.8 325.1 186.1 324.65 185.45 324.55 184.6
L 322 166.85
Q 321.85 164.9 320.4 163.6 319 162.25 317.05 162.25
L 305.15 162.25
Q 303.2 162.25 301.75 163.6 300.35 164.9 300.15 166.85
L 297.6 184.6
Q 297.55 185.45 297.05 186.1 296.55 186.8 295.75 187.1
L 281.9 192.85
Q 281.1 193.2 280.3 193.05 279.45 192.9 278.85 192.35
L 264.55 181.75
Q 263.1 180.5 261.15 180.6 259.2 180.65 257.8 182.05
L 249.4 190.45
Q 248 191.8 247.95 193.75 247.9 195.7 249.15 197.2
L 259.75 211.45
Q 260.3 212.1 260.45 212.95 260.55 213.75 260.25 214.5
L 254.5 228.4
Q 254.2 229.15 253.5 229.65 252.8 230.15 252 230.2
L 234.2 232.8
Q 232.3 232.95 230.95 234.4 229.65 235.8 229.65 237.75
L 229.65 249.65
Q 229.65 251.6 230.95 253.05 232.3 254.45 234.2 254.6
L 252 257.2
Q 252.8 257.25 253.5 257.75 254.2 258.25 254.5 259
L 260.25 272.9
Q 260.55 273.65 260.45 274.5 260.3 275.3 259.75 275.95
L 249.15 290.2
Q 247.9 291.7 247.95 293.65 248 295.6 249.4 297
L 257.8 305.4
Q 259.2 306.8 261.15 306.85 263.1 306.9 264.55 305.65
L 278.85 295.05
Q 279.45 294.5 280.3 294.35 281.1 294.25 281.9 294.55
L 295.75 300.3
Q 296.55 300.65 297.05 301.3 297.55 301.95 297.6 302.8
L 300.15 320.55
Q 300.35 322.5 301.75 323.85 303.2 325.15 305.15 325.15
L 317.05 325.15
Q 319 325.15 320.4 323.85 321.85 322.5 322 320.55
L 324.55 302.8
Q 324.65 301.95 325.1 301.3 325.6 300.65 326.4 300.3
L 340.3 294.55
Q 341.05 294.25 341.9 294.35 342.7 294.5 343.35 295.05
L 357.6 305.65
Q 359.1 306.9 361.05 306.85 363 306.8 364.35 305.4
L 372.8 297
Q 374.15 295.6 374.25 293.65 374.3 291.7 373.05 290.2
L 362.4 275.95
Q 361.85 275.3 361.75 274.5 361.65 273.65 361.95 272.9
L 367.7 259
Q 368.05 258.25 368.7 257.75 369.35 257.25 370.2 257.2
L 387.95 254.6
Q 389.9 254.45 391.2 253.05 392.55 251.6 392.55 249.65
L 392.55 237.75
Q 392.55 235.8 391.2 234.35 389.9 232.95 387.95 232.8
L 370.2 230.2
Q 369.35 230.15 368.7 229.65 368.05 229.15 367.7 228.4
L 361.95 214.5
Q 361.65 213.75 361.75 212.9 361.85 212.1 362.4 211.45
L 373.05 197.2
Q 374.3 195.7 374.25 193.75 374.15 191.8 372.8 190.45
L 364.35 182.05
Q 363 180.65 361.05 180.6 359.05 180.5 357.6 181.75
L 343.35 192.35
M 330.6 224.15
Q 334.55 228.1 336.65 233.15 338.7 238.15 338.7 243.7 338.7 249.25 336.65 254.3 334.55 259.3 330.6 263.25 326.7 267.15 321.65 269.25 316.6 271.35 311.1 271.35 305.55 271.35 300.55 269.25 295.45 267.15 291.55 263.25 287.65 259.3 285.55 254.3 283.5 249.25 283.5 243.7 283.5 238.15 285.55 233.15 287.65 228.1 291.55 224.15 295.45 220.25 300.55 218.15 305.55 216.1 311.1 216.1 316.6 216.1 321.65 218.15 326.7 220.25 330.6 224.15 Z"/>
</g>

<g id="Layer4_0_MEMBER_0_FILL">
<path fill="#F58522" stroke="none" d="
M 409.2 75.35
Q 386.5 48.85 354.5 33.3 320.65 16.9 279.45 14.4 271.85 13.95 265.75 13.95 230.2 13.95 198.4 25.2 166.65 36.5 142.65 57.65 118.05 79.35 104.7 109.2 90.7 140.35 90.75 176.7
L 90.75 186 50 258
Q 46.75 263.85 46.75 270.5 46.75 276.2 49.05 281.1 51.5 286.45 56.1 290.2 60.7 293.9 66.45 295.25
L 66.45 295.3 85.2 300.5 92.6 371.85 92.65 371.85
Q 93 379.7 96.45 386.7 99.8 393.75 105.7 398.85 110.95 403.45 117.45 405.9 123.9 408.25 130.8 408.25
L 133.6 408.15 154.85 409.8 155.9 409.7 156.25 409.7
Q 157.45 409.7 158.4 410.5
L 158.45 410.55
Q 159.5 411.5 159.5 412.95
L 159.5 486.05 357.7 486.05 357.7 432.9
Q 357.65 429 358.4 422.75 359.15 415.9 360.5 409.35 362.1 401.75 363.95 396.1 366 389.95 368.05 386.8 375 375.6 391.05 356.4 408.95 334.9 416.9 323.45 431.2 302.8 439.6 279.9 449.7 252.25 452.5 218.35 453.25 209.5 453.25 200.15 453.25 165.1 442.2 133.35 430.9 100.6 409.2 75.35
M 344.85 53.3
Q 372.45 66.7 392.35 89.85 411.25 111.85 421.3 140.65 431.05 168.9 431.05 200.15 431.05 208.3 430.35 216.55 427.7 247.9 418.8 272.2 411.55 291.95 398.65 310.85 391.95 320.65 373.95 342.15 357.45 361.8 349.15 375 345.75 380.5 342.85 389.15 339.4 399.7 337.35 412.75 335.55 424.05 335.5 432.9
L 335.5 463.9 181.7 463.9 181.7 412.95
Q 181.7 407.5 179.45 402.55 177.3 397.6 173.25 394 169.75 390.8 165.3 389.15 160.95 387.5 156.25 387.5
L 154.9 387.55 133.7 385.85 130.8 386.1
Q 124.9 386.1 120.25 382.15 117.75 379.9 116.25 376.9 114.8 373.85 114.75 370.4
L 114.75 369.95 105.7 283.1 71.55 273.7
Q 69.9 273.4 69.25 271.9
L 68.9 270.5 69.3 268.9 112.95 191.95 113 176.7
Q 113.05 144.85 124.95 118.3 136.2 93.1 157.4 74.3 178.1 56 205.85 46.15 233.95 36.15 265.75 36.15 271.55 36.15 278.1 36.55 315.15 38.9 344.85 53.3 Z"/>
</g>
</defs>

<g transform="matrix( 1, 0, 0, 1, 0,0) ">
<use xlink:href="#Layer4_0_FILL"/>
</g>

<g transform="matrix( 1, 0, 0, 1, 0,0) ">
<use xlink:href="#Layer4_0_MEMBER_0_FILL"/>
</g>
</svg>
