
<svg xmlns="http://www.w3.org/2000/svg" version="1.1" xmlns:xlink="http://www.w3.org/1999/xlink" preserveAspectRatio="none" x="0px" y="0px" width="500px" height="500px" viewBox="0 0 500 500">
<defs>
<g id="Layer5_0_MEMBER_0_FILL">
<path fill="#CCCCCC" stroke="none" d="
M 312.65 277.85
L 312.65 222.05 256.85 222.05 256.85 277.85 312.65 277.85 Z"/>
</g>

<g id="Layer5_0_MEMBER_1_FILL">
<path fill="#CCCCCC" stroke="none" d="
M 394.8 277.85
L 394.8 222.05 339 222.05 339 277.85 394.8 277.85 Z"/>
</g>

<g id="Layer5_1_MEMBER_0_FILL">
<path fill="#CCCCCC" stroke="none" d="
M 231.4 286.05
L 175.6 286.05 175.6 341.85 231.4 341.85 231.4 286.05 Z"/>
</g>

<g id="Layer5_1_MEMBER_1_FILL">
<path fill="#CCCCCC" stroke="none" d="
M 314.45 286.05
L 258.65 286.05 258.65 341.85 314.45 341.85 314.45 286.05 Z"/>
</g>

<g id="Layer5_1_MEMBER_2_FILL">
<path fill="#CCCCCC" stroke="none" d="
M 397.5 286.05
L 341.7 286.05 341.7 341.85 397.5 341.85 397.5 286.05 Z"/>
</g>

<g id="Layer5_2_MEMBER_0_FILL">
<path fill="#CCCCCC" stroke="none" d="
M 397.5 356.9
L 341.7 356.9 341.7 412.7 397.5 412.7 397.5 356.9 Z"/>
</g>

<g id="Layer5_3_MEMBER_0_FILL">
<path fill="#CCCCCC" stroke="none" d="
M 148.35 356.9
L 92.55 356.9 92.55 412.7 148.35 412.7 148.35 356.9 Z"/>
</g>

<g id="Layer5_3_MEMBER_1_FILL">
<path fill="#CCCCCC" stroke="none" d="
M 231.4 356.9
L 175.6 356.9 175.6 412.7 231.4 412.7 231.4 356.9 Z"/>
</g>

<g id="Layer5_3_MEMBER_2_FILL">
<path fill="#CCCCCC" stroke="none" d="
M 314.45 356.9
L 258.65 356.9 258.65 412.7 314.45 412.7 314.45 356.9 Z"/>
</g>

<g id="Layer5_3_MEMBER_3_FILL">
<path fill="#CCCCCC" stroke="none" d="
M 397.5 356.9
L 341.7 356.9 341.7 412.7 397.5 412.7 397.5 356.9 Z"/>
</g>

<g id="Layer5_4_FILL">
<path fill="#CCCCCC" stroke="none" d="
M 346.85 140.4
Q 361.15 134.7 376.1 134.7 392.05 134.7 406.65 140.85 420.75 146.8 431.6 157.7 442.461328125 168.561328125 448.4 182.55 448.42890625 182.6 448.45 182.65 454.6 197.25 454.6 213.2 454.6 229.15 448.45 243.75 442.5 257.85 431.6 268.75 420.75 279.6 406.65 285.55 400.9044921875 287.98984375 394.95 289.45
L 394.95 321.35
Q 407.1830078125 319.247265625 418.8 314.35 438.5 306.05 453.7 290.8 468.9 275.6 477.2 255.95 485.8 235.55 485.8 213.2 485.8 197.3845703125 481.45 182.55 479.70078125 176.467578125 477.2 170.55 468.9 150.8 453.7 135.6 438.5 120.45 418.8 112.15 398.4 103.5 376.1 103.5 355.1 103.5 335.2 111.45 320.8 81.45 292.85 63.45 264.15 44.95 229.75 44.95 206.75 44.95 185.7 53.55 165.3 61.85 149.3 77.15 133.3 92.4 123.95 112.3 114.3 132.8 113.05 155.55 106.75 154.7 101.75 154.7 84.65 154.7 69.05 161.3 53.9 167.7 42.3 179.35 40.72421875 180.919140625 39.25 182.55 29.7447265625 193.0271484375 24.25 206.05 17.65 221.75 17.65 238.85 17.65 255.95 24.25 271.55 30.6 286.7 42.3 298.3 53.9 309.95 69.05 316.35 81.079296875 321.4392578125 94 322.6
L 94 291.2
Q 77.0763671875 288.9171875 64.4 276.2 48.85 260.7 48.85 238.85 48.85 216.95 64.4 201.45 79.9 185.95 101.75 185.95 104.6 185.95 108.9 186.5
L 142.4 190.95 144.2 157.25
Q 145.15 140.5 152.25 125.4 159.15 110.85 170.9 99.7 182.6 88.55 197.6 82.45 213 76.2 229.75 76.2 254.7 76.2 275.45 89.3 296.25 102.4 307.1 124.95
L 319.75 151.35 346.85 140.4 Z"/>
</g>
</defs>

<g transform="matrix( 1.1429901123046875, 0, 0, 1.1429901123046875, -66.65,-4.15) ">
<use xlink:href="#Layer5_0_MEMBER_0_FILL"/>
</g>

<g transform="matrix( 1.1429901123046875, 0, 0, 1.1429901123046875, -65.65,-4.15) ">
<use xlink:href="#Layer5_0_MEMBER_1_FILL"/>
</g>

<g transform="matrix( 1.1429901123046875, 0, 0, 1.1429901123046875, -68.75,3.05) ">
<use xlink:href="#Layer5_1_MEMBER_0_FILL"/>
</g>

<g transform="matrix( 1.1429901123046875, 0, 0, 1.1429901123046875, -68.75,3.05) ">
<use xlink:href="#Layer5_1_MEMBER_1_FILL"/>
</g>

<g transform="matrix( 1.1429901123046875, 0, 0, 1.1429901123046875, -68.75,3.05) ">
<use xlink:href="#Layer5_1_MEMBER_2_FILL"/>
</g>

<g transform="matrix( 1.1429901123046875, 0, 0, 1.1429901123046875, -68.75,-238.7) ">
<use xlink:href="#Layer5_2_MEMBER_0_FILL"/>
</g>

<g transform="matrix( 1.1429901123046875, 0, 0, 1.1429901123046875, -68.75,2.6) ">
<use xlink:href="#Layer5_3_MEMBER_0_FILL"/>
</g>

<g transform="matrix( 1.1429901123046875, 0, 0, 1.1429901123046875, -68.75,2.6) ">
<use xlink:href="#Layer5_3_MEMBER_1_FILL"/>
</g>

<g transform="matrix( 1.1429901123046875, 0, 0, 1.1429901123046875, -68.75,2.6) ">
<use xlink:href="#Layer5_3_MEMBER_2_FILL"/>
</g>

<g transform="matrix( 1.1429901123046875, 0, 0, 1.1429901123046875, -68.75,2.6) ">
<use xlink:href="#Layer5_3_MEMBER_3_FILL"/>
</g>

<g transform="matrix( 1, 0, 0, 1, 0,0) ">
<use xlink:href="#Layer5_4_FILL"/>
</g>
</svg>
