<?xml version="1.0" encoding="utf-8"?>

<!-- Generator: Adobe Illustrator 22.1.0, SVG Export Plug-In . SVG Version: 6.00 Build 0)  -->

<svg preserveAspectRatio="none" version="1.1" id="圖層_1" xmlns="http://www.w3.org/2000/svg" xmlns:xlink="http://www.w3.org/1999/xlink" x="0px" y="0px"

	 viewBox="0 0 296.9 91.5" style="enable-background:new 0 0 296.9 91.5;" xml:space="preserve">

<style type="text/css">

	.st0{fill:#FFFFFF;}

</style>

<title>Ingrasys logo_white</title>

<path class="st0" d="M72.8,33.7c-1.5,8.8-2.1,17.8-1.6,26.7H55.2c1.4-9,2.3-18.1,1.6-26.7H72.8z"/>

<path class="st0" d="M65.2,10.1c4.9,0,8.9,4,8.9,9c0,4.9-4,8.9-9,8.9c-4.9,0-8.9-4-8.9-8.9C56.2,14.1,60.3,10.1,65.2,10.1

	C65.2,10.1,65.2,10.1,65.2,10.1z"/>

<path class="st0" d="M93,8.6c19.9,1.4,36.1,10.3,40.6,23.6h-2.8c-4.9-10.7-20-17-37.8-16.4V8.6z M93,80.2v-4.8

	c0.1,0,0.3-0.1,0.4-0.1c6.9-1.1,13.7-2.7,20.3-4.7C109,74.2,99.4,78.1,93,80.2z M72.3,9.8C79.1,8.6,86.1,8.2,93,8.6v7.2

	c-4.8,0.2-9.5,0.8-14.2,1.9c-0.7,0.2-1.4,0.3-2,0.5C76.5,14.9,74.9,11.9,72.3,9.8z M93,75.4c-25.4,4.1-49-3.2-52.9-18.7

	C37.5,46.3,44.3,35,56.7,26.9c-2-2.1-3.1-5-3.1-7.9c0-1.2,0.2-2.5,0.6-3.7C36.5,23.1,24.6,38,24.1,51.9v1.9c0,1.3,0.2,2.6,0.5,3.8

	c3.9,22.9,35.2,32.3,64.7,23.8c1-0.3,2.3-0.7,3.7-1.2L93,75.4z"/>

<path class="st0" d="M79.6,60.3c0.4-3.9,0.7-8.2,0.9-12.3s0.3-8.8,0.3-13.2h9.9v2.7c0.8-1.1,1.9-2,3.2-2.5c1.5-0.6,3.1-0.9,4.8-0.9

	c3.3,0,5.8,0.6,7.3,1.9c1.5,1.3,2.4,3.7,2.4,6.5c0,1-0.1,3.5-0.3,7.3c-0.2,3.9-0.3,7.6-0.4,10.5H97.6c0.2-2.5,0.3-4.9,0.5-7.1

	c0.1-2.2,0.2-3.8,0.2-5.1c0-2.4-0.1-4-0.6-4.9c-0.5-0.9-1.1-1.3-2.4-1.3c-2,0-3.2,1.1-4,3.4c-0.8,2.3-1.1,7.3-1.2,14.9L79.6,60.3z"

	/>

<path class="st0" d="M164.4,42.5c-0.2,0-0.3,0-0.5-0.1h-0.6c-1.6,0-3.3,0.3-4.3,1c-1,0.6-1.7,1.6-2,2.7c-0.4,1.3-0.6,2.6-0.7,3.9

	c-0.1,1.7-0.3,5.1-0.4,10.3h-10.3c0.4-3.7,0.6-7.8,0.8-11.5c0.2-3.7,0.3-7.8,0.3-11.6v-2.5h9.2l-0.1,2.7c1-1.5,1.6-2,2.6-2.5

	c1.1-0.6,2.9-0.9,4.4-0.9c0.3,0,0.6,0,1.2,0.1c0,0,0.1,0,0.2,0L164.4,42.5z"/>

<path class="st0" d="M179,60.4c-0.7,0.1-1.6,0.3-2.3,0.4c-0.6,0.1-1.2,0.1-1.8,0.1c-2.5,0-4.9-0.8-6.3-2s-2.1-3.1-2.1-5.2

	c0-2.3,0.7-4.2,2.1-5.5s4-2.5,7.2-3.2c0.3-0.1,0.3-0.1,1.3-0.3s4.5-1.2,4.9-2.1c0.2-0.4,0.1-0.8-0.2-1.1c0,0-0.1,0-0.1-0.1

	c-0.6-0.3-1.3-0.4-2-0.4c-1.5,0-3,0.2-4.5,0.5c-1.7,0.4-3.4,1-5.1,1.7l1.1-8c1.6-0.4,3.3-0.7,5-0.9c1.7-0.2,3.4-0.3,5.1-0.3

	c3.5,0,6.2,0.5,7.9,1.5c1.8,1.1,2.9,3.1,2.9,5.2c0,0.3,0,0.7,0,1.2c0,0.4-0.1,0.9-0.1,1.4l-0.6,12.5c0,0.2,0,0.6,0,1v3.4H181

	c0.1-1.7,0.2-3.4,0.3-4.4s0.2-1.6,0.2-2l0.2-3.9l-0.8,0.3c-0.4,0.1-0.9,0.3-1.4,0.4l-2,0.5c-0.6,0.1-1.1,0.4-1.5,0.7

	c-0.4,0.3-0.7,0.7-0.7,1.2c-0.1,0.4,0.1,0.9,0.4,1.2c0.4,0.4,0.9,0.6,1.5,0.5c0.4,0,0.8,0,1.3-0.1c0.5-0.1,1.7-0.3,2.3-0.5L179,60.4

	z"/>

<path class="st0" d="M195.2,51.6c1.9,0.6,3.8,1.1,4.9,1.4c1,0.2,2,0.4,3,0.4c0.8,0,1.1,0,1.6-0.2c0.5-0.2,0.6-0.4,0.6-0.8

	s-0.5-0.9-2.3-2.2c-0.2-0.2-0.4-0.3-0.6-0.3c-2.6-1.7-4.7-3.4-5.4-4.4c-0.7-1.1-1.1-2.5-1.1-3.8c0-2.2,1-4.3,2.8-5.6

	c1.7-1.2,4.4-1.8,7.7-1.8c1.4,0,2.9,0.1,4.3,0.2c1.4,0.1,2.7,0.4,4.1,0.7l0.6,7.6c-1.2-0.3-2.4-0.6-3.7-0.8c-1-0.1-1.9-0.2-2.9-0.2

	c-0.6,0-1.1,0.1-1.6,0.4c-0.2,0.2-0.3,0.4-0.2,0.7c0.1,0.6,0.7,1.1,2.2,2c0.3,0.2,0.6,0.4,0.8,0.5c2.2,1.4,3.7,2.8,4.6,4

	c0.8,1.1,1.2,2.5,1.2,3.9c0,2.5-0.9,4.6-2.7,5.9c-1.8,1.3-4.8,2.1-8.3,2.1c-1.5,0-2.9-0.1-4.4-0.3c-1.5-0.2-3.1-0.5-4.6-0.9

	L195.2,51.6z"/>

<path class="st0" d="M246.5,51.6c1.9,0.6,3.8,1.1,4.9,1.4c1,0.2,2,0.4,3,0.4c0.9,0,1.1,0,1.6-0.2c0.5-0.2,0.6-0.4,0.6-0.8

	s-0.5-0.9-2.3-2.2c-0.2-0.2-0.4-0.3-0.6-0.3c-2.6-1.7-4.7-3.4-5.4-4.4c-0.7-1.1-1.1-2.5-1.1-3.8c0-2.2,1-4.3,2.8-5.6

	c1.8-1.2,4.5-1.8,7.8-1.8c1.4,0,2.9,0.1,4.3,0.2c1.4,0.1,2.7,0.4,4.1,0.7l0.7,7.6c-1.2-0.3-2.5-0.6-3.7-0.8

	c-0.9-0.1-1.9-0.2-2.9-0.2c-0.6,0-1.1,0.1-1.6,0.4c-0.2,0.2-0.3,0.4-0.3,0.7c0.1,0.6,0.7,1.1,2.2,2c0.3,0.2,0.6,0.4,0.8,0.5

	c2.2,1.4,3.7,2.8,4.6,4c0.8,1.1,1.2,2.5,1.2,3.9c0,2.5-0.9,4.6-2.7,5.9c-1.8,1.3-4.8,2.1-8.3,2.1c-1.5,0-2.9-0.1-4.4-0.3

	c-1.5-0.2-3.1-0.5-4.6-0.9L246.5,51.6z"/>

<path class="st0" d="M225.8,59.9l-5.5-16c-0.4-1.3-0.9-2.6-1.4-4.1c-0.5-1.5-1.3-3.4-2-5.1h11.2c0.2,1,0.5,2.5,0.8,3.5

	c0.2,1,0.6,2.1,0.9,3.2l2.3,8.2l2.1-6.8c0.3-1.2,0.7-2.5,1-3.8c0.3-1.3,0.7-3,1-4.4h10.5l-10.1,25.2c-1.7,4.3-3.5,7.4-5.5,8.9

	c-2,1.5-5.1,2.4-8.7,2.4c-0.9,0-1.7-0.1-2.6-0.2c-1-0.1-2-0.3-3-0.5l-0.4-6.9c0.7,0.1,1.8,0.2,2.3,0.3c0.5,0.1,1.1,0.1,1.6,0.1

	c1.2,0.1,2.5-0.3,3.4-1.1C224.7,62.3,225.3,61.5,225.8,59.9z"/>

<path class="st0" d="M127.1,63.8c0.7-0.1,1.3-0.5,1.8-1c1-0.9,1.4-1.5,1.4-3.4v-0.4c0-0.2,0-0.3,0-0.4c-0.9,0.5-1.9,0.9-3,1.1

	c-0.1,0-0.1,0-0.2,0.1v-7.1c1.1-0.1,2-0.6,2.7-1.5c0.8-1,1-2.3,1.1-4.2l0.3-5.7c-0.4-0.1-0.6-0.2-1-0.2c-0.4-0.1-0.8-0.1-1.2-0.1

	c-0.6,0-1.3,0.1-1.9,0.2v-7.1c1.3-0.2,2.5-0.2,3.8-0.2c1.8,0,3.5,0.1,5.2,0.3c1.7,0.2,3.5,0.5,5.2,1c-0.4,5.7-0.8,11.9-1.1,17.9

	c-0.3,6-0.5,9.3-0.6,9.7c-0.6,2.7-2.2,5.1-4.3,6.4c-1.9,1.2-4.7,1.8-8.3,1.9L127.1,63.8z M115.6,62.2c1.9,0.6,3.9,1.2,5.4,1.5

	c1.3,0.3,2.6,0.4,3.9,0.4c0.7,0,1.5-0.1,2.2-0.2v7.4c-0.3,0-0.5,0-0.8,0c-1.7,0-3.3-0.1-4.9-0.3c-1.7-0.2-3.5-0.5-5.1-1L115.6,62.2

	L115.6,62.2z M127.1,59.9c-1.1,0.3-2.2,0.4-3.4,0.4c-3.3,0-6.3-1.2-8.2-3.1s-2.8-4.8-2.8-8.1c0-4.7,1.5-8.5,4.6-11

	c2.3-1.9,5.7-3.2,9.8-3.7v7.1c-1,0.3-1.9,0.9-2.5,1.7c-1.2,1.3-1.5,2.6-1.5,4.9c0,1.6,0.2,2.6,0.9,3.5c0.6,0.9,1.7,1.4,2.7,1.4

	c0.2,0,0.3,0,0.4,0L127.1,59.9z"/>

<path class="st0" d="M271.8,31.6c-1.8,0.1-3.5-0.6-4.8-1.8c-1.3-1.2-1.9-2.9-1.9-4.6c0-1.8,0.7-3.4,1.9-4.6c2.7-2.5,6.8-2.5,9.6,0

	c1.3,1.2,1.9,2.9,1.9,4.7c0,1.7-0.7,3.4-1.9,4.6C275.3,30.9,273.6,31.6,271.8,31.6z M271.9,19.6c-3-0.1-5.4,2.2-5.5,5.2

	c0,0.1,0,0.2,0,0.3c0,1.5,0.5,2.9,1.6,3.9c2.2,2.1,5.7,2.1,7.9,0c1.1-1,1.6-2.4,1.6-3.9c0.1-3-2.3-5.4-5.2-5.5

	C272.1,19.6,272,19.6,271.9,19.6L271.9,19.6z M275.3,29h-2.2l-0.7-2c-0.2-0.7-0.6-1.1-1-1.1h-0.6V29h-1.8V21h2.8

	c2.2,0,3.2,0.8,3.2,2.3c0,1.1-0.6,1.8-1.9,2.1v0c0.5,0.1,0.9,0.5,1.2,1.3L275.3,29z M270.8,22.5v2h1c0.8,0,1.2-0.3,1.2-1

	c0-0.7-0.5-1-1.4-1H270.8z"/>

</svg>

