<?xml version="1.0" encoding="utf-8"?>
<!-- Generator: Adobe Illustrator 22.1.0, SVG Export Plug-In . SVG Version: 6.00 Build 0)  -->
<svg version="1.1" xmlns="http://www.w3.org/2000/svg" xmlns:xlink="http://www.w3.org/1999/xlink" x="0px" y="0px"
	 viewBox="0 0 296.9 88.8" style="enable-background:new 0 0 296.9 88.8;" xml:space="preserve">
<style type="text/css">
	.st0{display:none;}
	.st1{display:inline;fill:#231815;}
	.st2{display:inline;fill:#C42B05;}
	.st3{fill:#FFFFFF;}
	.st4{fill:#C42B05;}
</style>
<g id="圖層_1" class="st0">
	<title>Ingrasys [轉換]</title>
	<path class="st1" d="M56.8,29.5c-1.8,10.3-2.4,20.8-1.9,31.2H36.3c1.6-10.6,2.7-21.1,1.9-31.2H56.8z"/>
	<path class="st1" d="M48,1.9c5.8,0,10.4,4.7,10.4,10.5c0,5.8-4.7,10.4-10.5,10.4c-5.7,0-10.4-4.7-10.4-10.4
		C37.5,6.6,42.2,1.9,48,1.9C48,1.9,48,1.9,48,1.9z"/>
	<path class="st2" d="M80.4,0.2c23.3,1.6,42.1,12,47.3,27.5h-3.3c-5.7-12.5-23.3-19.8-44.1-19.1V0.2z M80.4,83.8v-5.7
		c0.2,0,0.3-0.1,0.5-0.1c8-1.3,15.9-3.2,23.7-5.5C99.1,76.8,87.9,81.2,80.4,83.8z M56.2,1.7c8-1.5,16.1-2,24.2-1.4v8.4
		c-5.6,0.2-11.1,0.9-16.6,2.2c-0.8,0.2-1.6,0.4-2.4,0.6C61.2,7.6,59.3,4,56.2,1.7z M80.4,78.1c-29.7,4.8-57.1-3.7-61.7-21.8
		C15.6,44.2,23.6,31,38,21.6c-2.3-2.5-3.6-5.8-3.6-9.2c0-1.5,0.2-2.9,0.7-4.3C14.4,17.2,0.6,34.6,0,50.8V53c0.1,1.5,0.2,3,0.5,4.5
		C5.1,84.1,41.7,95.1,76,85.1c1.2-0.3,2.7-0.8,4.4-1.4L80.4,78.1z"/>
	<path class="st1" d="M64.8,60.5c0.5-4.5,0.8-9.6,1.1-14.4s0.4-10.3,0.4-15.4h11.5v3.1c1-1.3,2.3-2.3,3.8-3c1.8-0.7,3.7-1.1,5.6-1
		c3.8,0,6.8,0.7,8.5,2.2c1.7,1.5,2.8,4.3,2.8,7.6c0,1.2-0.1,4-0.4,8.6s-0.4,8.9-0.5,12.3H85.8c0.2-3,0.4-5.7,0.5-8.2
		s0.2-4.5,0.2-5.9c0-2.8-0.1-4.7-0.8-5.7c-0.5-1-1.6-1.6-2.8-1.5c-2.4,0-3.7,1.3-4.7,3.9s-1.3,8.5-1.4,17.4H64.8z"/>
	<path class="st1" d="M163.7,39.7c-0.2,0-0.4,0-0.6-0.1h-0.8c-1.7-0.1-3.5,0.3-5,1.1c-1.2,0.8-2,1.9-2.4,3.3c-0.4,1.5-0.7,3-0.8,4.5
		c-0.1,2-0.3,6-0.4,12h-12.1c0.4-4.3,0.8-9.1,1-13.4s0.4-9.1,0.4-13.5v-2.9h10.7l-0.1,3.1c0.7-1.2,1.7-2.2,3-2.9
		c1.6-0.7,3.4-1.1,5.1-1c0.4,0,0.7,0,1.4,0.1c0.1,0,0.1,0,0.2,0L163.7,39.7z"/>
	<path class="st1" d="M180.7,60.6c-0.8,0.2-1.9,0.3-2.7,0.4s-1.4,0.1-2.1,0.1c-2.6,0.1-5.2-0.8-7.3-2.4c-1.7-1.6-2.6-3.8-2.5-6.1
		c-0.1-2.4,0.8-4.7,2.4-6.4c1.6-1.5,4.7-2.9,8.4-3.7l1.5-0.3c1.1-0.3,5.3-1.4,5.8-2.4c0.3-0.4,0.1-1-0.3-1.3c0,0-0.1,0-0.1-0.1
		c-0.7-0.3-1.5-0.5-2.3-0.4c-1.8,0-3.5,0.2-5.3,0.6c-2,0.5-4,1.2-5.9,2l1.3-9.4c1.9-0.5,3.8-0.8,5.8-1.1c2-0.2,4-0.4,5.9-0.4
		c4.1,0,7.2,0.6,9.2,1.8c2.1,1.3,3.4,3.6,3.4,6.1c0,0.4,0,0.9,0,1.4s-0.1,1.1-0.1,1.7l-0.7,14.5c0,0.3,0,0.7,0,1.2v4h-12
		c0.1-2,0.3-4,0.3-5.1s0.2-1.9,0.2-2.4l0.2-4.5l-1,0.3c-0.5,0.2-1,0.3-1.6,0.5l-2.4,0.6c-0.6,0.2-1.3,0.5-1.8,0.9
		c-0.5,0.3-0.8,0.8-0.8,1.4c-0.1,0.5,0.1,1,0.5,1.4c0.5,0.4,1.1,0.6,1.7,0.6c0.5,0,1,0,1.5-0.1c0.6-0.1,1.9-0.4,2.7-0.5L180.7,60.6z
		"/>
	<path class="st1" d="M199.6,50.3c2.2,0.7,4.4,1.3,5.7,1.6c1.1,0.3,2.3,0.4,3.5,0.4c0.6,0.1,1.3,0,1.8-0.3c0.5-0.2,0.8-0.5,0.8-1
		s-0.6-1.1-2.7-2.6c-0.3-0.2-0.5-0.3-0.6-0.4c-3-2-5.5-4-6.3-5.2c-0.9-1.3-1.3-2.9-1.3-4.5c0-2.6,1.2-5,3.3-6.5c2-1.4,5.2-2.1,9-2.1
		c1.7,0,3.3,0.1,5,0.3c1.6,0.2,3.2,0.4,4.8,0.8l0.7,8.8c-1.4-0.4-2.8-0.7-4.3-1c-1.1-0.2-2.2-0.3-3.4-0.3c-0.7,0-1.3,0.1-1.9,0.4
		c-0.2,0.2-0.4,0.5-0.3,0.8c0.1,0.7,0.8,1.3,2.6,2.3c0.4,0.3,0.7,0.5,0.9,0.6c2,1.2,3.8,2.8,5.3,4.7c1,1.3,1.5,2.9,1.5,4.6
		c0.2,2.7-1,5.2-3.1,6.9c-2.1,1.5-5.6,2.5-9.6,2.5c-1.7,0-3.4-0.1-5.1-0.4c-1.8-0.2-3.6-0.6-5.4-1L199.6,50.3z"/>
	<path class="st1" d="M259.5,50.3c2.2,0.7,4.4,1.3,5.7,1.6c1.1,0.3,2.3,0.4,3.5,0.4c0.6,0.1,1.3,0,1.8-0.3c0.5-0.2,0.8-0.5,0.8-1
		s-0.6-1.1-2.7-2.6c-0.3-0.2-0.5-0.3-0.6-0.4c-3-2-5.5-4-6.3-5.2c-0.9-1.3-1.3-2.9-1.3-4.5c0-2.6,1.2-5,3.2-6.5
		c2-1.4,5.2-2.1,9.1-2.1c1.7,0,3.3,0.1,5,0.3c1.6,0.2,3.2,0.4,4.7,0.8l0.8,8.8c-1.4-0.4-2.9-0.7-4.3-1c-1.1-0.2-2.2-0.3-3.4-0.3
		c-0.7,0-1.3,0.1-1.9,0.4c-0.2,0.2-0.4,0.5-0.3,0.8c0.1,0.7,0.9,1.3,2.6,2.3c0.4,0.3,0.7,0.5,0.9,0.6c2,1.2,3.9,2.8,5.4,4.7
		c0.9,1.3,1.4,2.9,1.4,4.5c0.2,2.7-1,5.2-3.1,6.9c-2.1,1.5-5.6,2.5-9.6,2.5c-1.7,0-3.4-0.1-5.1-0.3c-1.8-0.2-3.6-0.6-5.4-1
		L259.5,50.3z"/>
	<path class="st1" d="M235.4,60l-6.4-18.7c-0.5-1.5-1-3.1-1.6-4.8s-1.6-4-2.3-5.9h13c0.3,1.2,0.6,2.9,0.9,4.1s0.7,2.4,1,3.7l2.7,9.6
		l2.4-7.9c0.4-1.4,0.8-2.9,1.2-4.4s0.8-3.5,1.2-5.1h12.3L248,60c-2,5-4.1,8.6-6.4,10.4s-6,2.8-10.2,2.8c-1,0-2-0.1-3-0.2
		c-1.2-0.1-2.3-0.4-3.5-0.6l-0.5-8c0.8,0.1,2.1,0.3,2.7,0.4s1.3,0.1,1.9,0.1c1.4,0.1,2.9-0.3,4-1.3C234.2,62.8,235,61.5,235.4,60z"
		/>
	<path class="st1" d="M120.2,64.7c0.8-0.2,1.5-0.5,2.1-1.1c1.2-1,1.8-2.5,1.7-4v-0.5c0-0.2,0-0.4,0-0.5c-1.1,0.6-2.3,1.1-3.5,1.3
		c-0.1,0-0.2,0-0.3,0.1v-8.2c1.2-0.1,2.4-0.7,3-1.7c0.9-1.2,1.2-2.6,1.3-4.9l0.3-6.6c-0.5-0.1-0.7-0.2-1.2-0.3
		c-0.5-0.1-0.9-0.1-1.4-0.1c-0.8,0-1.5,0.1-2.2,0.3v-8.2c1.5-0.2,3-0.3,4.5-0.3c2,0,4.1,0.1,6.1,0.4c2,0.2,4.1,0.6,6.1,1.1
		c-0.5,6.6-0.9,13.9-1.3,20.9s-0.6,10.8-0.7,11.3c-0.6,3.1-2.4,5.8-5,7.5c-2.3,1.4-5.5,2.1-9.7,2.2L120.2,64.7z M106.8,62.7
		c2.2,0.7,4.6,1.4,6.3,1.7c1.5,0.3,3,0.5,4.5,0.5c0.9,0,1.7-0.1,2.6-0.3v8.7c-0.3,0-0.6,0-0.9,0c-1.9,0-3.9-0.1-5.8-0.4
		c-2-0.3-4-0.6-6-1.2L106.8,62.7L106.8,62.7z M120.2,60c-1.3,0.3-2.6,0.4-3.9,0.4c-3.5,0.1-7-1.2-9.5-3.6c-2.2-2.3-3.3-5.6-3.3-9.5
		c0-5.4,1.8-9.9,5.4-12.8c3.3-2.5,7.3-4,11.4-4.4v8.2c-1.1,0.4-2.2,1.1-2.9,2c-1.4,1.5-1.8,3-1.8,5.7c0,1.8,0.2,3,1,4.1
		c0.7,1,1.9,1.6,3.2,1.6c0.2,0,0.4,0,0.5,0L120.2,60z"/>
	<path class="st1" d="M289.1,27c-2.1,0.1-4.1-0.7-5.6-2.1c-1.5-1.4-2.3-3.4-2.2-5.4c-0.1-2.1,0.8-4.1,2.3-5.5c3.2-2.9,8-2.9,11.2,0
		c1.5,1.4,2.3,3.4,2.2,5.4c0.1,2-0.8,4-2.3,5.4C293.2,26.3,291.2,27.1,289.1,27z M289.1,13c-3.4-0.1-6.3,2.6-6.5,6
		c0,0.1,0,0.3,0,0.4c0,1.7,0.6,3.4,1.9,4.6c2.6,2.4,6.6,2.4,9.2,0c1.2-1.2,1.9-2.8,1.9-4.6c0.1-3.5-2.6-6.3-6.1-6.4
		C289.3,13,289.2,13,289.1,13L289.1,13z M293.1,24h-2.6l-0.8-2.4c-0.3-0.8-0.6-1.2-1.1-1.2h-0.8V24h-2.1v-9.4h3.3
		c2.5,0,3.8,0.9,3.8,2.7c0,1.3-0.9,2.4-2.2,2.5v0c0.7,0.2,1.2,0.8,1.4,1.5L293.1,24z M287.8,16.4v2.3h1.2c1,0,1.4-0.4,1.4-1.2
		s-0.5-1.1-1.6-1.1L287.8,16.4z"/>
</g>
<g id="圖層_1_拷貝">
	<title>Ingrasys [轉換]</title>
	<path class="st3" d="M90.3,34.8c-1.1,6.4-1.5,13-1.2,19.5H77.5c1-6.6,1.7-13.2,1.2-19.5H90.3z"/>
	<path class="st3" d="M84.8,17.6c3.6,0,6.5,3,6.5,6.6s-3,6.5-6.6,6.5c-3.6,0-6.5-2.9-6.5-6.5C78.2,20.5,81.1,17.6,84.8,17.6
		C84.8,17.6,84.8,17.6,84.8,17.6z"/>
	<path class="st4" d="M105,16.5c14.5,1,26.3,7.5,29.6,17.2h-2C129,25.9,118,21.3,105,21.8V16.5z M105,68.7v-3.5c0.1,0,0.2,0,0.3,0
		c5-0.8,10-2,14.8-3.4C116.7,64.4,109.7,67.1,105,68.7z M89.9,17.4c5-0.9,10-1.2,15.1-0.9v5.3c-3.5,0.1-6.9,0.6-10.3,1.4
		c-0.5,0.1-1,0.2-1.5,0.4C93,21.1,91.8,18.9,89.9,17.4z M105,65.2c-18.5,3-35.7-2.3-38.6-13.7c-1.9-7.6,3.1-15.8,12.1-21.7
		c-1.5-1.6-2.3-3.6-2.3-5.8c0-0.9,0.1-1.8,0.4-2.7C63.8,27.1,55.2,38,54.8,48.1v1.4c0,0.9,0.1,1.9,0.3,2.8
		c2.9,16.7,25.7,23.5,47.1,17.3c0.8-0.2,1.7-0.5,2.7-0.9L105,65.2z"/>
	<path class="st3" d="M95.3,54.2c0.3-2.8,0.5-6,0.7-9s0.2-6.4,0.2-9.6h7.2v2c0.6-0.8,1.4-1.5,2.4-1.8c1.1-0.5,2.3-0.7,3.5-0.6
		c2.4,0,4.3,0.4,5.3,1.4c1.1,0.9,1.8,2.7,1.8,4.8c0,0.7-0.1,2.5-0.2,5.3c-0.2,2.8-0.2,5.6-0.3,7.7h-7.4c0.1-1.8,0.2-3.6,0.3-5.1
		c0.1-1.6,0.1-2.8,0.1-3.7c0-1.7-0.1-2.9-0.5-3.6c-0.3-0.6-1-1-1.7-0.9c-1.5,0-2.3,0.8-2.9,2.5s-0.8,5.3-0.8,10.9H95.3z"/>
	<path class="st3" d="M157.1,41.2c-0.1,0-0.2,0-0.4,0h-0.5c-1.1,0-2.2,0.2-3.1,0.7c-0.7,0.5-1.3,1.2-1.5,2c-0.3,0.9-0.4,1.9-0.5,2.8
		c-0.1,1.2-0.2,3.7-0.3,7.5h-7.5c0.3-2.7,0.5-5.7,0.6-8.4c0.2-2.7,0.2-5.7,0.2-8.4v-1.8h6.7l-0.1,1.9c0.4-0.8,1.1-1.4,1.9-1.8
		c1-0.5,2.1-0.7,3.2-0.7c0.2,0,0.4,0,0.9,0c0,0,0.1,0,0.1,0L157.1,41.2z"/>
	<path class="st3" d="M167.7,54.3c-0.5,0.1-1.2,0.2-1.7,0.3c-0.5,0.1-0.9,0.1-1.3,0.1c-1.7,0-3.3-0.5-4.6-1.5
		c-1.1-1-1.6-2.4-1.6-3.8c-0.1-1.5,0.5-3,1.5-4c1-0.9,2.9-1.8,5.2-2.3l0.9-0.2c0.7-0.2,3.3-0.9,3.6-1.5c0.2-0.3,0.1-0.6-0.2-0.8
		c0,0-0.1,0-0.1,0c-0.5-0.2-1-0.3-1.5-0.3c-1.1,0-2.2,0.1-3.3,0.4c-1.3,0.3-2.5,0.7-3.7,1.2l0.8-5.8c1.2-0.3,2.4-0.5,3.6-0.7
		c1.2-0.2,2.5-0.2,3.7-0.2c2.6,0,4.5,0.4,5.7,1.1c1.3,0.8,2.1,2.3,2.1,3.8c0,0.2,0,0.5,0,0.9s0,0.7,0,1l-0.4,9.1c0,0.2,0,0.4,0,0.8
		v2.5h-7.5c0.1-1.2,0.2-2.5,0.2-3.2s0.1-1.2,0.1-1.5l0.1-2.8l-0.6,0.2c-0.3,0.1-0.7,0.2-1,0.3l-1.5,0.4c-0.4,0.1-0.8,0.3-1.1,0.5
		c-0.3,0.2-0.5,0.5-0.5,0.9c0,0.3,0.1,0.7,0.3,0.9c0.3,0.3,0.7,0.4,1.1,0.4c0.3,0,0.6,0,0.9-0.1c0.4,0,1.2-0.2,1.7-0.3L167.7,54.3z"
		/>
	<path class="st3" d="M179.5,47.8c1.4,0.4,2.7,0.8,3.6,1c0.7,0.2,1.4,0.3,2.2,0.3c0.4,0,0.8,0,1.1-0.2c0.3-0.1,0.5-0.3,0.5-0.6
		s-0.4-0.7-1.7-1.6c-0.2-0.1-0.3-0.2-0.4-0.2c-1.9-1.2-3.4-2.5-4-3.2c-0.5-0.8-0.8-1.8-0.8-2.8c0-1.6,0.7-3.1,2-4.1
		c1.2-0.9,3.2-1.3,5.6-1.3c1,0,2.1,0,3.1,0.2c1,0.1,2,0.3,3,0.5l0.4,5.5c-0.9-0.3-1.8-0.5-2.7-0.6c-0.7-0.1-1.4-0.2-2.1-0.2
		c-0.4,0-0.8,0.1-1.2,0.3c-0.2,0.1-0.2,0.3-0.2,0.5c0.1,0.4,0.5,0.8,1.6,1.5c0.2,0.2,0.4,0.3,0.6,0.4c1.3,0.8,2.4,1.7,3.3,2.9
		c0.6,0.8,0.9,1.8,0.9,2.9c0.1,1.7-0.6,3.3-2,4.3c-1.3,0.9-3.5,1.6-6,1.6c-1.1,0-2.1-0.1-3.2-0.2c-1.1-0.1-2.2-0.4-3.3-0.6
		L179.5,47.8z"/>
	<path class="st3" d="M216.9,47.8c1.3,0.4,2.7,0.8,3.6,1c0.7,0.2,1.4,0.3,2.2,0.3c0.4,0,0.8,0,1.1-0.2c0.3-0.1,0.5-0.3,0.5-0.6
		s-0.4-0.7-1.7-1.6c-0.2-0.1-0.3-0.2-0.4-0.2c-1.9-1.2-3.4-2.5-4-3.2c-0.5-0.8-0.8-1.8-0.8-2.8c0-1.6,0.7-3.1,2-4.1
		c1.3-0.9,3.3-1.3,5.7-1.3c1,0,2.1,0,3.1,0.2c1,0.1,2,0.3,2.9,0.5l0.5,5.5c-0.9-0.3-1.8-0.5-2.7-0.6c-0.7-0.1-1.4-0.2-2.1-0.2
		c-0.4,0-0.8,0.1-1.2,0.3c-0.2,0.1-0.2,0.3-0.2,0.5c0.1,0.4,0.5,0.8,1.6,1.5c0.2,0.2,0.4,0.3,0.6,0.4c1.3,0.8,2.4,1.8,3.3,2.9
		c0.6,0.8,0.9,1.8,0.9,2.8c0.1,1.7-0.6,3.3-2,4.3c-1.3,0.9-3.5,1.6-6,1.6c-1.1,0-2.1-0.1-3.2-0.2c-1.1-0.1-2.2-0.4-3.4-0.6
		L216.9,47.8z"/>
	<path class="st3" d="M201.8,53.9l-4-11.7c-0.3-0.9-0.6-1.9-1-3c-0.4-1.1-1-2.5-1.4-3.7h8.1c0.2,0.8,0.4,1.8,0.6,2.6
		s0.4,1.5,0.6,2.3l1.7,6l1.5-4.9c0.2-0.9,0.5-1.8,0.8-2.7c0.2-0.9,0.5-2.2,0.7-3.2h7.7l-7.3,18.4c-1.2,3.1-2.6,5.4-4,6.5
		c-1.5,1.1-3.7,1.8-6.4,1.8c-0.6,0-1.2,0-1.9-0.1c-0.7-0.1-1.5-0.2-2.2-0.4l-0.3-5c0.5,0.1,1.3,0.2,1.7,0.2c0.4,0,0.8,0.1,1.2,0.1
		c0.9,0.1,1.8-0.2,2.5-0.8C201.1,55.6,201.6,54.8,201.8,53.9z"/>
	<path class="st3" d="M129.9,56.8c0.5-0.1,1-0.3,1.3-0.7c0.8-0.6,1.1-1.5,1-2.5v-0.3c0-0.1,0-0.2,0-0.3c-0.7,0.4-1.4,0.7-2.2,0.8
		c-0.1,0-0.1,0-0.2,0v-5.1c0.8,0,1.5-0.4,1.9-1.1c0.6-0.7,0.7-1.6,0.8-3.1l0.2-4.1c-0.3-0.1-0.4-0.1-0.7-0.2c-0.3,0-0.6-0.1-0.9,0
		c-0.5,0-0.9,0-1.4,0.2v-5.1c0.9-0.1,1.9-0.2,2.8-0.2c1.3,0,2.6,0.1,3.8,0.2c1.3,0.1,2.5,0.4,3.8,0.7c-0.3,4.1-0.6,8.7-0.8,13.1
		s-0.4,6.8-0.4,7.1c-0.4,1.9-1.5,3.6-3.1,4.7c-1.4,0.8-3.5,1.3-6,1.4L129.9,56.8z M121.5,55.6c1.4,0.4,2.9,0.9,3.9,1.1
		c0.9,0.2,1.9,0.3,2.8,0.3c0.5,0,1.1,0,1.6-0.2v5.4c-0.2,0-0.4,0-0.6,0c-1.2,0-2.4-0.1-3.6-0.2c-1.3-0.2-2.5-0.4-3.7-0.7L121.5,55.6
		L121.5,55.6z M129.9,53.9c-0.8,0.2-1.6,0.3-2.5,0.3c-2.2,0.1-4.3-0.7-6-2.2c-1.4-1.4-2-3.5-2-5.9c0-3.4,1.1-6.2,3.3-8
		c2.1-1.6,4.5-2.5,7.1-2.7v5.1c-0.7,0.2-1.4,0.7-1.8,1.2c-0.9,0.9-1.1,1.9-1.1,3.6c0,1.1,0.1,1.9,0.6,2.5c0.5,0.6,1.2,1,2,1
		c0.1,0,0.2,0,0.3,0L129.9,53.9z"/>
	<path class="st3" d="M235.4,33.3c-1.3,0-2.6-0.4-3.5-1.3c-0.9-0.9-1.4-2.1-1.4-3.4c0-1.3,0.5-2.5,1.4-3.4c2-1.8,5-1.8,7,0
		c0.9,0.9,1.4,2.1,1.4,3.4c0,1.3-0.5,2.5-1.4,3.4C238,32.8,236.7,33.3,235.4,33.3z M235.4,24.5c-2.2-0.1-4,1.6-4,3.8
		c0,0.1,0,0.2,0,0.3c0,1.1,0.4,2.1,1.2,2.9c1.6,1.5,4.1,1.5,5.7,0c0.8-0.7,1.2-1.8,1.2-2.8c0.1-2.2-1.6-4-3.8-4
		C235.6,24.5,235.5,24.5,235.4,24.5L235.4,24.5z M237.9,31.4h-1.6l-0.5-1.5c-0.2-0.5-0.4-0.8-0.7-0.8h-0.5v2.3h-1.3v-5.9h2.1
		c1.6,0,2.4,0.6,2.4,1.7c0,0.8-0.6,1.5-1.4,1.6v0c0.4,0.1,0.8,0.5,0.9,0.9L237.9,31.4z M234.6,26.6v1.5h0.7c0.6,0,0.9-0.2,0.9-0.8
		s-0.3-0.7-1-0.7L234.6,26.6z"/>
</g>
</svg>
